<svg id="外部リンクアイコン" xmlns="http://www.w3.org/2000/svg" width="16" height="16" viewBox="0 0 16 16">
  <g id="グループ_3488" data-name="グループ 3488">
    <rect id="長方形_1361" data-name="長方形 1361" width="16" height="16" fill="none"/>
    <g id="グループ_3492" data-name="グループ 3492" transform="translate(1.454 2.182)">
      <path id="パス_454" data-name="パス 454" d="M229.5-234.678h-7.4a1.456,1.456,0,0,1-1.455-1.455v-6.076a1.456,1.456,0,0,1,1.455-1.455h7.4a1.456,1.456,0,0,1,1.455,1.455v6.076A1.456,1.456,0,0,1,229.5-234.678Zm-7.4-7.531v6.076h7.4v-6.076Z" transform="translate(-217.867 243.663)" fill="#fff"/>
      <path id="パス_455" data-name="パス 455" d="M225.773-231.036h-7.59a1.356,1.356,0,0,1-1.359-1.348v-6.289a.727.727,0,0,1,.727-.727h1.135a.728.728,0,0,1,.727.727.728.728,0,0,1-.727.727h-.408v5.456h6.767v-.072a.727.727,0,0,1,.727-.727.727.727,0,0,1,.727.727v.8A.727.727,0,0,1,225.773-231.036Z" transform="translate(-216.824 242.501)" fill="#fff"/>
    </g>
  </g>
</svg>
