<svg xmlns="http://www.w3.org/2000/svg" width="24" height="24" viewBox="0 0 24 24">
  <g id="グループ_2878" data-name="グループ 2878" transform="translate(-1324 -15)">
    <path id="envelope-alt" d="M20.545,4H5.273A3.273,3.273,0,0,0,2,7.273V18.182a3.273,3.273,0,0,0,3.273,3.273H20.545a3.273,3.273,0,0,0,3.273-3.273V7.273A3.273,3.273,0,0,0,20.545,4ZM5.273,6.182H20.545a1.091,1.091,0,0,1,1.091,1.091L12.909,12.6,4.182,7.273A1.091,1.091,0,0,1,5.273,6.182Zm16.364,12a1.091,1.091,0,0,1-1.091,1.091H5.273a1.091,1.091,0,0,1-1.091-1.091V9.76l8.16,4.985a1.091,1.091,0,0,0,1.091,0l8.2-4.985Z" transform="translate(1323.091 14.273)" fill="#fff"/>
    <rect id="長方形_1160" data-name="長方形 1160" width="24" height="24" transform="translate(1324 15)" fill="none"/>
  </g>
</svg>
