<svg xmlns="http://www.w3.org/2000/svg" width="24" height="24" viewBox="0 0 24 24">
  <g id="グループ_3451" data-name="グループ 3451" transform="translate(-6809 -112)">
    <path id="file-search-alt" d="M12.909,21.636H5.273a1.091,1.091,0,0,1-1.091-1.091V5.273A1.091,1.091,0,0,1,5.273,4.182h5.455V7.455A3.273,3.273,0,0,0,14,10.727h3.273v1.091a1.091,1.091,0,1,0,2.182,0V9.571a1.429,1.429,0,0,0-.065-.295v-.1a1.167,1.167,0,0,0-.207-.305h0L12.636,2.327h0a1.167,1.167,0,0,0-.305-.207.349.349,0,0,0-.1,0,.96.96,0,0,0-.36-.12h-6.6A3.273,3.273,0,0,0,2,5.273V20.545a3.273,3.273,0,0,0,3.273,3.273h7.636a1.091,1.091,0,1,0,0-2.182Zm0-15.916,2.825,2.825H14a1.091,1.091,0,0,1-1.091-1.091ZM7.455,8.545a1.091,1.091,0,0,0,0,2.182H8.545a1.091,1.091,0,0,0,0-2.182ZM23.5,21.953l-1.276-1.265a3.753,3.753,0,0,0-.589-4.505h0a3.841,3.841,0,1,0-.949,6.044L21.953,23.5A1.1,1.1,0,1,0,23.5,21.953Zm-3.458-1.909a1.68,1.68,0,0,1-2.3,0,1.636,1.636,0,0,1-.469-1.145,1.593,1.593,0,0,1,.48-1.156A1.63,1.63,0,0,1,20.545,18.9a1.636,1.636,0,0,1-.5,1.145ZM14,12.909H7.455a1.091,1.091,0,0,0,0,2.182H14a1.091,1.091,0,0,0,0-2.182Zm-2.182,6.545a1.091,1.091,0,1,0,0-2.182H7.455a1.091,1.091,0,0,0,0,2.182Z" transform="translate(6808.091 111.091)" fill="#fff"/>
    <rect id="長方形_1180" data-name="長方形 1180" width="24" height="24" transform="translate(6809 112)" fill="none"/>
    <rect id="長方形_1181" data-name="長方形 1181" width="24" height="24" transform="translate(6809 112)" fill="none"/>
  </g>
</svg>
