<?xml version="1.0" encoding="utf-8"?>
<!-- Generator: Adobe Illustrator 26.0.1, SVG Export Plug-In . SVG Version: 6.00 Build 0)  -->
<svg version="1.1" id="レイヤー_1" xmlns="http://www.w3.org/2000/svg" xmlns:xlink="http://www.w3.org/1999/xlink" x="0px"
	 y="0px" viewBox="0 0 29.1 29.1" style="enable-background:new 0 0 29.1 29.1;" xml:space="preserve">
<style type="text/css">
	.st0{fill:#FFFFFF;}
</style>
<path id="pen" class="st0" d="M29.1,7.6c0-0.4-0.1-0.8-0.4-1l-6.2-6.2c-0.6-0.6-1.5-0.6-2.1,0l-4.1,4.1l0,0L0.4,20.4
	c-0.3,0.3-0.4,0.6-0.4,1v6.2c0,0.8,0.7,1.5,1.5,1.5h6.2c0.4,0,0.8-0.1,1.1-0.4l15.8-15.9l0,0l4.1-4c0.1-0.1,0.2-0.3,0.3-0.5
	c0-0.1,0-0.2,0-0.3c0-0.1,0-0.1,0-0.2L29.1,7.6z M7,26.2H2.9v-4.1L17.4,7.6l4.1,4.1L7,26.2z M23.5,9.7l-4.1-4.1l2.1-2.1l4.1,4.1
	L23.5,9.7z"/>
</svg>
