<svg xmlns="http://www.w3.org/2000/svg" width="16" height="16" viewBox="0 0 16 16">
  <g id="グループ_3626" data-name="グループ 3626" transform="translate(-810 -10723)">
    <path id="check-circle" d="M11.251,6.938l-3.12,3.127-1.2-1.2A.727.727,0,1,0,5.905,9.891l1.709,1.716a.729.729,0,0,0,1.025,0l3.636-3.636a.728.728,0,1,0-1.025-1.033ZM9.273,2a7.273,7.273,0,1,0,7.273,7.273A7.273,7.273,0,0,0,9.273,2Zm0,13.091a5.818,5.818,0,1,1,5.818-5.818A5.818,5.818,0,0,1,9.273,15.091Z" transform="translate(808.727 10721.728)" fill="#fff"/>
    <rect id="長方形_1439" data-name="長方形 1439" width="16" height="16" transform="translate(810 10723)" fill="none"/>
  </g>
</svg>
