<?xml version="1.0" encoding="utf-8"?>
<!-- Generator: Adobe Illustrator 25.4.1, SVG Export Plug-In . SVG Version: 6.00 Build 0)  -->
<svg version="1.1" id="レイヤー_1" xmlns="http://www.w3.org/2000/svg" xmlns:xlink="http://www.w3.org/1999/xlink" x="0px"
	 y="0px" viewBox="0 0 4738 782.3" style="enable-background:new 0 0 4738 782.3;" xml:space="preserve">
<style type="text/css">
	.st0{fill:#FA858B;}
</style>
<desc>Created with Snap</desc>
<g>
	<g>
		<g transform="matrix(1.024,0,0,-1.024,0,0)">
			<path class="st0" d="M232-449v-236c15.3-3.3,29-7.7,41-13c12-5.3,23.7-10.7,35-16v-38H0v38c14.7,8,28.7,14,42,18
				c13.3,4.7,26.7,8.3,40,11v566c-33.3,7.3-60.7,17-82,29v38h106c13.3,0,28.3,0.3,45,1c17.3,0.7,35.3,1.3,54,2
				c18.7,1.3,37.7,2.3,57,3c19.3,1.3,38,2,56,2c36.7,0,70.3-4.3,101-13c31.3-8,58-20.3,80-37c22.7-16.7,40-37.7,52-63
				c12.7-24.7,19-53.7,19-87c0-48-11.7-87.3-35-118c-23.3-30.7-55.3-53.7-96-69c26.7-42,55-85,85-129c30-43.3,61.7-85.3,95-126
				l48-32v-34H500l-43,33c-30.7,36.7-58,79-82,127c-23.3,48.7-44,96.3-62,143H232z M282-109c-20.7,0-37.3-2-50-6v-279h59
				c34,0,63,12,87,36c24,24.7,36,61,36,109c0,24.7-3.3,45.7-10,63c-6.7,18-16,32.7-28,44s-26,19.7-42,25
				C318-111.7,300.7-109,282-109z M1144-648l19-20c-5.3-11.3-14-23-26-35c-11.3-11.3-25.7-21.7-43-31c-16.7-8.7-36.3-16-59-22
				c-22-5.3-46-8-72-8c-41.3,0-78,6-110,18c-32,12.7-58.7,30.3-80,53c-21.3,23.3-37.7,51-49,83c-10.7,32-16,68-16,108
				c0,85.3,22.3,150.3,67,195s106.7,67,186,67c34,0,65.7-4.7,95-14c30-9.3,54.7-24.7,74-46c20-21.3,33.7-49.3,41-84
				c8-34.7,7.7-77-1-127H863c0.7-52.7,14-94.7,40-126c26.7-31.3,65.7-47,117-47c22,0,44.7,3.3,68,10
				C1112-667.3,1130.7-658.7,1144-648z M957-297c-13.3,0-25.3-2.3-36-7c-10-4.7-19-13.3-27-26c-7.3-12-13.3-28.7-18-50
				c-4.7-20.7-8-47-10-79h161c4.7,52,1.7,92-9,120C1007.3-311,987-297,957-297z M1590-653h-4c-3.3-14.7-9.3-28.7-18-42
				c-8.7-13.3-19-25.3-31-36c-12-10-25.7-18-41-24s-31.7-9-49-9c-66,0-116.3,20.7-151,62c-34,42-51,106-51,192c0,44,6,82.3,18,115
				c12,33.3,28.7,61.3,50,84c22,22.7,48.3,39.7,79,51c30.7,11.3,64.7,17,102,17c12,0,22-0.3,30-1c8.7-0.7,16.3-1.7,23-3
				c7.3-0.7,14-2.3,20-5c6.7-2,14-4.3,22-7v176l-76,8v39c9.3,4,22,7.7,38,11c16.7,3.3,34,6.3,52,9c18,3.3,35.7,6.3,53,9s31.7,5,43,7
				h34v-681l66-8v-35c-9.3-4.7-21.3-9-36-13s-30-7.7-46-11c-16-3.3-31.7-6.3-47-9c-14.7-2-27-3.7-37-5h-34L1590-653z M1495-684
				c23.3,0,43,7.3,59,22c16,14.7,27.7,39.7,35,75v269c-8.7,5.3-19.7,9.7-33,13c-12.7,3.3-28.7,5-48,5c-38.7,0-66.3-17.7-83-53
				c-16.7-34.7-25-85.3-25-152c0-54,7.3-97.3,22-130C1436.7-667.7,1461-684,1495-684z M2106-752l-93-12l-157,449
				c-9.3,3.3-18.7,6.7-28,10c-8.7,4-17,8.7-25,14v39h253v-38c-9.3-5.3-18.7-10.3-28-15c-9.3-4-19-7.3-29-10l69-256l13-77h2l18,80
				l106,310l49,6l114-317l21-79h2l16,78l60,255c-7.3,1.3-16,4-26,8c-9.3,4-19,9.3-29,16v39h193v-39c-14-9.3-33-17.3-57-24l-139-437
				l-94-12l-86,247l-19,83h-3l-23-83L2106-752z M3067-607c0-14.7,0-27.3,0-38c0.7-10.7,1.7-22,3-34l69-10v-35c-8-4-19-8-33-12
				c-13.3-4-27.7-8-43-12c-14.7-3.3-29.3-6.3-44-9c-14.7-2-27.7-3.7-39-5h-34c-6.7,15.3-10.7,30.7-12,46c-1.3,15.3-2.3,34-3,56h-5
				c-3.3-13.3-9-26.3-17-39c-8-12-18.3-23-31-33c-12-9.3-26.3-17-43-23s-35.3-9-56-9c-22,0-42.3,3.3-61,10c-18.7,6.7-35,16-49,28
				s-25,26.3-33,43c-8,17.3-12,36.7-12,58c0,30,5.7,54.7,17,74c11.3,19.3,29,35,53,47c24.7,12.7,56,22,94,28
				c38.7,6,85.3,10.3,140,13c5.3,57.3,3,99.3-7,126c-10,26.7-31.7,40-65,40c-20.7,0-39.7-3.3-57-10l-47-120h-44
				c-5.3,8-10.7,17-16,27c-4.7,10.7-9.3,21.7-14,33c-4,12-7.7,24-11,36c-2.7,12-4.7,23.7-6,35c25.3,17.3,58,31,98,41
				c40,10,82.3,15,127,15c38,0,69-4.3,93-13c24-8,42.7-19.3,56-34c14-14,23.7-30.7,29-50c5.3-19.3,8-40,8-62c0-40-1-76.3-3-109
				C3067.7-540,3067-573,3067-607z M2842-684c14,0,26,2.7,36,8c10,5.3,18.3,11.7,25,19c7.3,7.3,12.7,15.3,16,24c4,8.7,7,16.3,9,23
				v100c-31.3-0.7-57-2.7-77-6c-20-3.3-35.7-9-47-17c-11.3-7.3-19.3-17-24-29c-4-11.3-6-25.3-6-42c0-25.3,6-45,18-59
				S2820.7-684,2842-684z M3461-713v-39h-276v39c22,10.7,44,18.7,66,24v606l-76,8v39c8.7,4,20.7,8,36,12s31.7,7.3,49,10
				c18,3.3,35.7,6,53,8c18,2.7,34,4.7,48,6h34v-689C3417-694.3,3439-702.3,3461-713z M3862-653h-4c-3.3-14.7-9.3-28.7-18-42
				c-8.7-13.3-19-25.3-31-36c-12-10-25.7-18-41-24s-31.7-9-49-9c-66,0-116.3,20.7-151,62c-34,42-51,106-51,192c0,44,6,82.3,18,115
				c12,33.3,28.7,61.3,50,84c22,22.7,48.3,39.7,79,51c30.7,11.3,64.7,17,102,17c12,0,22-0.3,30-1c8.7-0.7,16.3-1.7,23-3
				c7.3-0.7,14-2.3,20-5c6.7-2,14-4.3,22-7v176l-76,8v39c9.3,4,22,7.7,38,11c16.7,3.3,34,6.3,52,9c18,3.3,35.7,6.3,53,9s31.7,5,43,7
				h34v-681l66-8v-35c-9.3-4.7-21.3-9-36-13s-30-7.7-46-11c-16-3.3-31.7-6.3-47-9c-14.7-2-27-3.7-37-5h-34L3862-653z M3767-684
				c23.3,0,43,7.3,59,22c16,14.7,27.7,39.7,35,75v269c-8.7,5.3-19.7,9.7-33,13c-12.7,3.3-28.7,5-48,5c-38.7,0-66.3-17.7-83-53
				c-16.7-34.7-25-85.3-25-152c0-54,7.3-97.3,22-130C3708.7-667.7,3733-684,3767-684z M4555-607c0-14.7,0-27.3,0-38
				c0.7-10.7,1.7-22,3-34l69-10v-35c-8-4-19-8-33-12c-13.3-4-27.7-8-43-12c-14.7-3.3-29.3-6.3-44-9c-14.7-2-27.7-3.7-39-5h-34
				c-6.7,15.3-10.7,30.7-12,46c-1.3,15.3-2.3,34-3,56h-5c-3.3-13.3-9-26.3-17-39c-8-12-18.3-23-31-33c-12-9.3-26.3-17-43-23
				s-35.3-9-56-9c-22,0-42.3,3.3-61,10c-18.7,6.7-35,16-49,28s-25,26.3-33,43c-8,17.3-12,36.7-12,58c0,30,5.7,54.7,17,74
				c11.3,19.3,29,35,53,47c24.7,12.7,56,22,94,28c38.7,6,85.3,10.3,140,13c5.3,57.3,3,99.3-7,126c-10,26.7-31.7,40-65,40
				c-20.7,0-39.7-3.3-57-10l-47-120h-44c-5.3,8-10.7,17-16,27c-4.7,10.7-9.3,21.7-14,33c-4,12-7.7,24-11,36c-2.7,12-4.7,23.7-6,35
				c25.3,17.3,58,31,98,41c40,10,82.3,15,127,15c38,0,69-4.3,93-13c24-8,42.7-19.3,56-34c14-14,23.7-30.7,29-50c5.3-19.3,8-40,8-62
				c0-40-1-76.3-3-109C4555.7-540,4555-573,4555-607z M4330-684c14,0,26,2.7,36,8c10,5.3,18.3,11.7,25,19c7.3,7.3,12.7,15.3,16,24
				c4,8.7,7,16.3,9,23v100c-31.3-0.7-57-2.7-77-6c-20-3.3-35.7-9-47-17c-11.3-7.3-19.3-17-24-29c-4-11.3-6-25.3-6-42
				c0-25.3,6-45,18-59S4308.7-684,4330-684z"/>
		</g>
	</g>
</g>
</svg>
