<?xml version="1.0" encoding="utf-8"?>
<!-- Generator: Adobe Illustrator 25.4.1, SVG Export Plug-In . SVG Version: 6.00 Build 0)  -->
<svg version="1.1" id="レイヤー_1" xmlns="http://www.w3.org/2000/svg" xmlns:xlink="http://www.w3.org/1999/xlink" x="0px"
	 y="0px" viewBox="0 0 5008.4 736.3" style="enable-background:new 0 0 5008.4 736.3;" xml:space="preserve">
<style type="text/css">
	.st0{fill:#4A274F;}
</style>
<desc>Created with Snap</desc>
<g>
	<g>
		<g transform="matrix(1.024,0,0,-1.024,0,0)">
			<g transform="matrix(1,0,0,1,0,0)">
				<path class="st0" d="M0-80h94l107-371c2.7-8,5.3-18.3,8-31c3.3-12,6.7-25,10-39c3.3-13.3,6.3-27,9-41c2.7-13.3,4.7-26,6-38h2
					c2,12,4.3,24.7,7,38c3.3,14,6.7,27.7,10,41c3.3,14,6.3,27,9,39c3.3,12,6.3,22.3,9,31L381-80h82l114-371c2.7-8.7,5.3-19,8-31
					c3.3-12,6.3-24.7,9-38c3.3-13.3,6.3-27,9-41c3.3-14,6-27,8-39h2c2,12.7,4.3,26,7,40c3.3,14,6.7,27.7,10,41c3.3,14,6.3,26.7,9,38
					c3.3,12,6,22,8,30L750-80h93L658-710h-93l-96,335c-4.7,16.7-9.3,32.3-14,47c-4,14.7-8,28.7-12,42c-3.3,13.3-7,26.7-11,40
					c-3.3,14-7,28.7-11,44h-2c-6.7-30-14-60-22-90c-8-30-15.7-57.7-23-83l-93-335h-92L0-80z"/>
			</g>
			<g transform="matrix(1,0,0,1,859,0)">
				<g transform="matrix(2.3547,0,0,2.3547,-545.6599,1081.6744)">
					<g transform="matrix(1,0,0,-1,0,0)">
						<g>
							<rect x="286.7" y="604.1" class="st0" width="138.7" height="8.2"/>
							<path class="st0" d="M451.9,666c0,12.2-9.8,22-22,22h-12.7v39.8l-44-39.8h-89.8c-12.2,0-22-9.8-22-22v-69.3
								c0-12.2,9.8-22,22-22h146.5c12.2,0,22,9.8,22,22v29.8H286.7v16.4h181.6v-46.2c0-21.2-17.2-38.4-38.4-38.4H283.3
								c-21.2,0-38.4,17.2-38.4,38.4V666c0,21.2,17.2,38.4,38.4,38.4h83.5l66.8,60.3v-60.5c19.7-1.9,34.7-18.5,34.7-38.2L451.9,666
								L451.9,666z"/>
							<rect x="286.7" y="657.4" class="st0" width="69.3" height="8.2"/>
						</g>
						<desc>Created with Snap</desc>
					</g>
				</g>
			</g>
			<g transform="matrix(1,0,0,1,1460.0291,0)">
				<path class="st0" d="M99-346l-34,64c16,8,31,15,45,21c14,6.7,28,12,42,16s28.3,7,43,9s30.7,3,48,3c26,0,49.7-3,71-9
					c22-5.3,40.7-14.7,56-28c16-13.3,28.3-31,37-53c8.7-21.3,13-48.3,13-81v-306h-73l-11,52h-2c-20.7-22-43.3-37.7-68-47
					c-24.7-9.3-52-14-82-14c-22.7,0-43.7,3-63,9c-18.7,6.7-35,15.7-49,27c-14,12-25,26.3-33,43c-7.3,16.7-11,35.3-11,56
					c0,49.3,19.3,86.7,58,112c39.3,26,91,39,155,39h90v40c0,34-8.7,57-26,69c-17.3,12.7-40.7,19-70,19c-17.3,0-37.3-3-60-9
					C153-319.3,127.7-330,99-346z M332-589v96l-74-2c-50-1.3-85.7-10.3-107-27c-20.7-16-31-35.7-31-59c0-14,2.3-26,7-36
					c4.7-9.3,10.7-16.7,18-22c8-5.3,17-9.3,27-12c10.7-2,21.7-3,33-3c22,0,44.3,5,67,15C294.7-628.3,314.7-611.7,332-589z"/>
			</g>
			<g transform="matrix(1,0,0,1,1949.0291,0)">
				<path class="st0" d="M150-710H64V0h86V-710z"/>
			</g>
			<g transform="matrix(1,0,0,1,2179.0291,0)">
				<path class="st0" d="M372-279V0h88v-710h-74l-11,52h-3c-20.7-21.3-41.7-37-63-47c-20.7-9.3-47-14-79-14c-25.3,0-50,5-74,15
					c-23.3,10-44.3,25-63,45c-18.7,20-33.7,45-45,75c-11.3,30.7-17,66.7-17,108c0,36.7,4.7,70,14,100c10,30,24,55.7,42,77
					s40,37.7,66,49c26,11.3,55.7,17,89,17c24.7,0,48-4,70-12C334.7-252.3,354.7-263.7,372-279z M372-586v233
					c-31.3,35.3-68.3,53-111,53c-18,0-35.7-3.3-53-10c-16.7-6-31.7-16-45-30c-12.7-14-23-32-31-54s-12-48.3-12-79
					c0-32,3.7-59.3,11-82c7.3-22,17-40.3,29-55c12.7-14,26.7-24.3,42-31c16-6.7,32-10,48-10C300-651,340.7-629.3,372-586z"/>
			</g>
			<g transform="matrix(1,0,0,1,2715.0291,0)">
				<path class="st0" d="M148-369v-341H60v470h68l13-65c22,22,45.7,39.3,71,52c25.3,13.3,55.7,20,91,20c33.3,0,60.7-7,82-21
					c21.3-13.3,37.3-32,48-56c23.3,24.7,49,43.7,77,57c28,13.3,59,20,93,20c48,0,84-13.7,108-41c24.7-26.7,37-64,37-112v-324h-88
					v308c0,31.3-6.7,55.3-20,72c-13.3,16.7-35.3,25-66,25c-45.3,0-87.7-20.3-127-61c0.7-3.3,1-6.7,1-10s0-6.7,0-10v-324h-88v308
					c0,31.3-6.7,55.3-20,72c-13.3,16.7-35.3,25-66,25C228.7-305,186.7-326.3,148-369z"/>
			</g>
			<g transform="matrix(1,0,0,1,3539.0291,0)">
				<path class="st0" d="M99-346l-34,64c16,8,31,15,45,21c14,6.7,28,12,42,16c14,4,28.3,7,43,9s30.7,3,48,3c26,0,49.7-3,71-9
					c22-5.3,40.7-14.7,56-28c16-13.3,28.3-31,37-53c8.7-21.3,13-48.3,13-81v-306h-73l-11,52h-2c-20.7-22-43.3-37.7-68-47
					c-24.7-9.3-52-14-82-14c-22.7,0-43.7,3-63,9c-18.7,6.7-35,15.7-49,27c-14,12-25,26.3-33,43c-7.3,16.7-11,35.3-11,56
					c0,49.3,19.3,86.7,58,112c39.3,26,91,39,155,39h90v40c0,34-8.7,57-26,69c-17.3,12.7-40.7,19-70,19c-17.3,0-37.3-3-60-9
					C153-319.3,127.7-330,99-346z M332-589v96l-74-2c-50-1.3-85.7-10.3-107-27c-20.7-16-31-35.7-31-59c0-14,2.3-26,7-36
					c4.7-9.3,10.7-16.7,18-22c8-5.3,17-9.3,27-12c10.7-2,21.7-3,33-3c22,0,44.3,5,67,15C294.7-628.3,314.7-611.7,332-589z"/>
			</g>
			<g transform="matrix(1,0,0,1,4028.0291,0)">
				<path class="st0" d="M460-439v-46H123v-4c0-52,14-92,42-120c28.7-28,67.3-42,116-42c25.3,0,47.7,2,67,6c20,4,41.7,10.7,65,20
					l18-65c-19.3-8.7-42.3-15.7-69-21c-26-5.3-54-8-84-8c-34,0-66,4.7-96,14c-29.3,9.3-55.3,23.7-78,43c-22.7,20-40.7,45.3-54,76
					c-12.7,30.7-19,67.3-19,110c0,36.7,5.3,70,16,100c11.3,30,27,55.3,47,76c20,21.3,44,37.7,72,49c28.7,12,60.7,18,96,18
					c30,0,57-5,81-15c24.7-10,45.7-24,63-42s30.7-39.7,40-65S460-408.3,460-439z M125-424l244,2c0,17.3-2.3,33.3-7,48
					c-4,15.3-10.7,28.7-20,40c-8.7,11.3-20,20.3-34,27s-31,10-51,10c-36.7,0-66.7-11.7-90-35C144.3-355.3,130.3-386,125-424z"/>
			</g>
			<g transform="matrix(1,0,0,1,4532.0291,0)">
				<path class="st0" d="M145-710H58v470h66l15-94c11.3,30,30,54.3,56,73s56,28,90,28c17.3,0,31.7-1.3,43-4s21.7-6,31-10l-17-77
					c-8,4-17,7.3-27,10c-9.3,2.7-20.7,4-34,4c-19.3,0-37.3-3.3-54-10c-16-6.7-30.3-16.7-43-30c-12-13.3-21.7-30-29-50
					c-6.7-19.3-10-41.7-10-67V-710z"/>
			</g>
		</g>
	</g>
</g>
</svg>
