<?xml version="1.0" encoding="utf-8"?>
<!-- Generator: Adobe Illustrator 25.4.1, SVG Export Plug-In . SVG Version: 6.00 Build 0)  -->
<svg version="1.1" id="レイヤー_1" xmlns="http://www.w3.org/2000/svg" xmlns:xlink="http://www.w3.org/1999/xlink" x="0px"
	 y="0px" viewBox="0 0 4082.4 1324.8" style="enable-background:new 0 0 4082.4 1324.8;" xml:space="preserve">
<style type="text/css">
	.st0{fill:#CBCE91;}
	.st1{fill:#76528B;}
</style>
<desc>Created with Snap</desc>
<g>
	<g transform="matrix(17.4369,0,0,17.4369,-1810.2383,-1162.6907)">
		<g>
			<path class="st0" d="M165.6,114.6c1,2.9,1.4,6,1.3,9c2.6-1,5-2.5,7.1-4.6c0.2-0.2,0.4-0.5,0.6-0.8c0-0.3,0.1-0.7,0.1-1
				c0-2.9-0.6-5.7-1.8-8.2C170.8,111.3,168.4,113.2,165.6,114.6z"/>
			<path class="st0" d="M146.2,135.8c2.5,1.1,5.3,1.8,8.2,1.8c0.3,0,0.7-0.1,1-0.1c0.3-0.2,0.5-0.4,0.8-0.6c2.1-2.1,3.6-4.5,4.6-7.1
				c-3,0.1-6.1-0.3-9-1.3C150.3,131.2,148.4,133.7,146.2,135.8z"/>
			<path class="st0" d="M131.9,128.4c-2.9,1-6,1.4-9,1.3c1,2.6,2.5,5,4.6,7.1c0.2,0.2,0.5,0.4,0.8,0.6c0.3,0,0.7,0.1,1,0.1
				c2.9,0,5.7-0.6,8.2-1.8C135.2,133.7,133.3,131.2,131.9,128.4z"/>
			<path class="st0" d="M118,114.6c-2.8-1.4-5.3-3.3-7.3-5.5c-1.1,2.5-1.8,5.3-1.8,8.2c0,0.3,0.1,0.7,0.1,1c0.2,0.3,0.4,0.5,0.6,0.8
				c2.1,2.1,4.5,3.6,7.1,4.6C116.6,120.5,117.1,117.5,118,114.6z"/>
			<path class="st0" d="M118,94.8c-1-2.9-1.4-6-1.3-9c-2.6,1-5,2.5-7.1,4.6c-0.2,0.2-0.4,0.5-0.6,0.8c0,0.3-0.1,0.7-0.1,1
				c0,2.9,0.6,5.7,1.8,8.2C112.8,98,115.3,96.1,118,94.8z"/>
			<path class="st0" d="M137.4,73.6c-2.5-1.1-5.3-1.8-8.2-1.8c-0.3,0-0.7,0.1-1,0.1c-0.3,0.2-0.5,0.4-0.8,0.6
				c-2.1,2.1-3.6,4.5-4.6,7.1c3-0.1,6.1,0.3,9,1.3C133.3,78.1,135.2,75.6,137.4,73.6z"/>
			<path class="st0" d="M151.7,80.9c2.9-1,6-1.4,9-1.3c-1-2.6-2.5-5-4.6-7.1c-0.2-0.2-0.5-0.4-0.8-0.6c-0.3,0-0.7-0.1-1-0.1
				c-2.9,0-5.7,0.6-8.2,1.8C148.4,75.6,150.3,78.1,151.7,80.9z"/>
			<path class="st0" d="M173.9,90.3c-2.1-2.1-4.5-3.6-7.1-4.6c0.1,3-0.3,6.1-1.3,9c2.8,1.4,5.3,3.3,7.3,5.5c1.1-2.5,1.8-5.3,1.8-8.2
				c0-0.3-0.1-0.7-0.1-1C174.3,90.8,174.2,90.6,173.9,90.3z"/>
			<path class="st0" d="M149.5,117.2c0-0.2,0-0.3-0.1-0.5c-1.1-0.2-2.1-0.5-3.1-0.8c-0.5,0.9-0.9,1.9-1.5,2.7
				c0.1,0.1,0.2,0.3,0.3,0.4c1.1,1.1,2.4,2.1,3.7,2.9C149.3,120.4,149.5,118.9,149.5,117.2z"/>
			<path class="st0" d="M134.7,121.9c1.3-0.8,2.6-1.7,3.7-2.9c0.1-0.1,0.2-0.3,0.3-0.4c-0.6-0.9-1-1.8-1.5-2.7c-1,0.3-2,0.6-3.1,0.8
				c0,0.2,0,0.3,0,0.5C134.1,118.9,134.3,120.4,134.7,121.9z"/>
			<path class="st0" d="M127.5,108.1c-1.1,1.1-2.1,2.4-2.9,3.7c1.5,0.4,3.1,0.6,4.7,0.6c0.2,0,0.3,0,0.5,0c0.2-1.1,0.5-2.1,0.8-3.1
				c-0.9-0.5-1.8-0.9-2.7-1.5C127.7,107.9,127.6,108,127.5,108.1z"/>
			<path class="st0" d="M129.7,97c-0.2,0-0.3,0-0.5,0c-1.6,0-3.2,0.2-4.7,0.6c0.8,1.3,1.7,2.6,2.9,3.7c0.1,0.1,0.3,0.2,0.4,0.3
				c0.9-0.6,1.8-1,2.7-1.5C130.2,99.1,129.9,98,129.7,97z"/>
			<path class="st0" d="M134.1,92.1c0,0.2,0,0.3,0,0.5c1.1,0.2,2.1,0.5,3.1,0.8c0.5-0.9,0.9-1.9,1.5-2.7c-0.1-0.1-0.2-0.3-0.3-0.4
				c-1.1-1.1-2.4-2.1-3.7-2.9C134.3,88.9,134.1,90.5,134.1,92.1z"/>
			<path class="st0" d="M148.9,87.4c-1.3,0.8-2.6,1.7-3.7,2.9c-0.1,0.1-0.2,0.3-0.3,0.4c0.6,0.9,1,1.8,1.5,2.7c1-0.3,2-0.6,3.1-0.8
				c0-0.2,0.1-0.3,0.1-0.5C149.5,90.5,149.3,88.9,148.9,87.4z"/>
			<path class="st0" d="M154.4,96.9c-0.2,0-0.3,0-0.5,0c-0.2,1.1-0.5,2.1-0.8,3.1c0.9,0.5,1.9,0.9,2.7,1.5c0.1-0.1,0.3-0.2,0.4-0.3
				c1.1-1.1,2.1-2.4,2.9-3.7C157.5,97.2,156,96.9,154.4,96.9z"/>
			<path class="st0" d="M139.4,103.7c0,0.7,0,1.3,0,2c0.5,0.5,0.9,1,1.4,1.4c0.7,0,1.3,0,2,0c0.5-0.5,1-0.9,1.4-1.4c0-0.7,0-1.3,0-2
				c-0.5-0.5-0.9-1-1.4-1.4c-0.7,0-1.3,0-2,0C140.3,102.7,139.8,103.2,139.4,103.7z"/>
			<path class="st0" d="M155.8,107.8c-0.9,0.6-1.8,1-2.7,1.5c0.3,1,0.6,2,0.8,3.1c0.2,0,0.3,0,0.5,0c1.6,0,3.2-0.2,4.7-0.6
				c-0.8-1.3-1.7-2.6-2.9-3.7C156,108,155.9,107.9,155.8,107.8z"/>
			<path class="st0" d="M163.6,110.1c2.6-1.3,4.8-3.2,6.6-5.4c-1.8-2.3-4-4.1-6.6-5.4c-1.1,1.9-2.4,3.8-4,5.4
				C161.2,106.3,162.5,108.2,163.6,110.1z"/>
			<path class="st0" d="M153.4,85.4c0.6,2.1,0.9,4.4,0.9,6.7c2.3,0,4.6,0.3,6.7,0.9c0.9-2.7,1.1-5.6,0.8-8.4
				C159,84.3,156.2,84.5,153.4,85.4z"/>
			<path class="st0" d="M141.8,76.3c-2.3,1.8-4.1,4-5.4,6.6c1.9,1.1,3.8,2.4,5.4,4c1.6-1.6,3.5-2.9,5.4-4
				C145.9,80.3,144.1,78.1,141.8,76.3z"/>
			<path class="st0" d="M129.2,92.1c0-2.3,0.3-4.6,0.9-6.7c-2.7-0.9-5.6-1.1-8.4-0.8c-0.3,2.8-0.1,5.7,0.8,8.4
				C124.7,92.4,126.9,92.1,129.2,92.1z"/>
			<path class="st0" d="M113.4,104.7c1.8,2.3,4,4.1,6.6,5.4c1.1-1.9,2.4-3.8,4-5.4c-1.6-1.6-2.9-3.5-4-5.4
				C117.4,100.6,115.2,102.4,113.4,104.7z"/>
			<path class="st0" d="M130.2,123.9c-0.6-2.1-0.9-4.4-0.9-6.7c-2.3,0-4.6-0.3-6.7-0.9c-0.9,2.7-1.1,5.6-0.8,8.4
				C124.6,125.1,127.4,124.8,130.2,123.9z"/>
			<path class="st0" d="M141.8,133.1c2.3-1.8,4.1-4,5.4-6.6c-1.9-1.1-3.8-2.4-5.4-4c-1.6,1.6-3.5,2.9-5.4,4
				C137.7,129,139.6,131.3,141.8,133.1z"/>
			<path class="st0" d="M154.4,117.2c0,2.3-0.3,4.6-0.9,6.7c2.7,0.9,5.6,1.1,8.4,0.8c0.3-2.8,0-5.7-0.8-8.4
				C158.9,116.9,156.7,117.2,154.4,117.2z"/>
			<path class="st0" d="M178.7,98.2c-0.6,2.3-1.5,4.5-2.6,6.5c1.2,2,2,4.2,2.6,6.5C180.1,106.9,180.1,102.4,178.7,98.2z"/>
			<path class="st0" d="M172.5,83.2c-2-4-5.2-7.3-9.3-9.3c1.2,2.1,2.1,4.3,2.7,6.5C168.3,81.1,170.5,82,172.5,83.2z"/>
			<path class="st0" d="M148.3,67.7c-4.2-1.4-8.7-1.4-12.9,0c2.3,0.6,4.5,1.5,6.5,2.6C143.8,69.2,146,68.3,148.3,67.7z"/>
			<path class="st0" d="M120.4,73.9c-4,2-7.3,5.2-9.3,9.3c2.1-1.2,4.3-2.1,6.5-2.7C118.2,78.2,119.1,76,120.4,73.9z"/>
			<path class="st0" d="M104.9,111.1c0.6-2.3,1.5-4.5,2.6-6.5c-1.2-2-2-4.2-2.6-6.5C103.5,102.4,103.5,106.9,104.9,111.1z"/>
			<path class="st0" d="M111.1,126.1c2,4,5.2,7.3,9.3,9.3c-1.2-2.1-2.1-4.3-2.7-6.5C115.3,128.3,113.1,127.4,111.1,126.1z"/>
			<path class="st0" d="M135.3,141.6c4.2,1.4,8.7,1.4,12.9,0c-2.3-0.6-4.5-1.5-6.5-2.6C139.8,140.1,137.6,141,135.3,141.6z"/>
			<path class="st0" d="M163.3,135.4c4-2,7.3-5.2,9.3-9.3c-2.1,1.2-4.3,2.1-6.5,2.7C165.4,131.1,164.5,133.3,163.3,135.4z"/>
		</g>
		<desc>Created with Snap</desc>
	</g>
	<g>
		<g transform="matrix(1.024,0,0,-1.024,0,0)">
			<path class="st1" d="M1831.8-922.4h-238v53h78v457h-78v53h238v-53h-78v-192h300v192h-79v53h238v-53h-78v-457h78v-53h-238v53h79
				v208h-300v-208h78V-922.4z M2488.8-934.4c-42,0-79,8.7-111,26c-32,17.3-57,41.7-75,73c-17.3,31.3-26,68-26,110s8.7,78.3,26,109
				c18,31.3,43,55.3,75,72c32,17.3,69,26,111,26c42.7,0,80-8.7,112-26c32-16.7,57-40.7,75-72c18-30.7,27-66.7,27-108
				c0-42-9-78.7-27-110c-18-31.3-43-56-75-74C2568.8-925.7,2531.4-934.4,2488.8-934.4z M2488.8-876.4c28,0,52.3,6.3,73,19
				c20.7,12.7,36.7,30.3,48,53c11.3,22.7,17,49.3,17,80c0,30-5.7,56-17,78c-11.3,22-27.3,39-48,51c-20.7,12.7-45,19-73,19
				c-27.3,0-51.3-6.3-72-19c-20-12-35.7-29.3-47-52c-11.3-22-17-48-17-78s5.7-56.3,17-79c11.3-22.7,27-40.3,47-53
				C2437.4-870,2461.4-876.4,2488.8-876.4z M2981.8-922.4h-219v53h76v287h-76v53h149v-117l-14,2c7.3,30,16.7,53.7,28,71
				c12,17.3,25.3,29.7,40,37c15.3,8,31,12,47,12c13.3,0,26.7-1.7,40-5c13.3-3.3,26.7-8.3,40-15l-18-67c-11.3,7.3-22.7,12.7-34,16
				c-11.3,4-23,6-35,6c-25.3,0-47.3-10.7-66-32c-18-20.7-27-50.7-27-90l-1-158h70V-922.4z M3357.8-932.4c-20.7,0-40.7,2.7-60,8
				c-18.7,5.3-35,12.7-49,22c-14,9.3-24.7,20.3-32,33l15-9v-44h-58v136h52l6-65l-14,47c7.3-24.7,23.7-43.7,49-57
				c26-13.3,53-20,81-20c25.3,0,46.3,5,63,15c17.3,10,26,24,26,42c0,21.3-7.3,36-22,44c-14,8.7-36.7,16.3-68,23l-55,12
				c-36.7,9.3-65.7,21.7-87,37c-21.3,16-32,42.3-32,79c0,35.3,13.7,62.3,41,81c28,19.3,62.7,29,104,29c16,0,32.7-2.3,50-7
				c18-4,34.3-10.3,49-19c14.7-8.7,25-19.3,31-32l-15,5v45h59v-135h-52l-13,95l17-66c-2.7,12-10.3,22.3-23,31
				c-12,9.3-26.3,16.7-43,22c-16,5.3-32,8-48,8c-21.3,0-40.7-4.3-58-13c-16.7-8.7-25-22.7-25-42c0-14.7,5.7-26,17-34
				c12-8,31.3-15.3,58-22l51-11c25.3-6,48-13.3,68-22c20.7-8,37-20,49-36c12-15.3,18-37.3,18-66c0-26-7.3-47.7-22-65
				c-14-16.7-32.7-29-56-37C3407.1-928.4,3383.1-932.4,3357.8-932.4z M3719.8-933.4c-40.7,0-73.3,11.3-98,34
				c-24.7,22.7-37,50.3-37,83c0,30,7,54,21,72c14.7,18,34,31,58,39s50.3,12,79,12c22.7,0,45.7-2,69-6c24-3.3,47.3-8,70-14l-30-5v53
				c0,31.3-8.3,54.3-25,69c-16.7,14.7-39.3,22-68,22c-18.7,0-40.7-3.3-66-10c-24.7-6-47.7-14.7-69-26l-22,48
				c23.3,14.7,49.7,25.3,79,32c29.3,7.3,55.7,11,79,11c34.7,0,64.3-5.7,89-17c24.7-11.3,43.3-27.7,56-49c13.3-20.7,20-45,20-73v-211
				h62v-53h-127l-6,56h28c-26-22.7-51.3-39.7-76-51C3781.1-928,3752.4-933.4,3719.8-933.4z M3730.8-882.4c24.7,0,49.3,5.3,74,16
				c24.7,10.7,50.3,27,77,49l-30-36v116l23-18c-17.3,5.3-37,9.7-59,13c-22,3.3-44.7,5-68,5s-44.7-5.3-64-16c-19.3-10-29-29.7-29-59
				c0-20,6.7-36.7,20-50C3688.1-875.7,3706.8-882.4,3730.8-882.4z"/>
		</g>
	</g>
</g>
</svg>
