<?xml version="1.0" encoding="utf-8"?>
<!-- Generator: Adobe Illustrator 25.4.1, SVG Export Plug-In . SVG Version: 6.00 Build 0)  -->
<svg version="1.1" id="レイヤー_1" xmlns="http://www.w3.org/2000/svg" xmlns:xlink="http://www.w3.org/1999/xlink" x="0px"
	 y="0px" viewBox="0 0 6865.4 1783.3" style="enable-background:new 0 0 6865.4 1783.3;" xml:space="preserve">
<style type="text/css">
	.st0{fill:#FC766A;}
	.st1{fill:#5B84B1;}
</style>
<desc>Created with Snap</desc>
<g>
	<g transform="matrix(19.8141,0,0,19.8141,-2128.0938,-1372.651)">
		<g transform="translate(0,-952.36218)">
			<path class="st0" d="M148.1,1021.6l3.2,38.7c0,0,0,0,0,0c0,0,0,0,0,0c0,0-0.1,0-0.1,0c0,0,0,0,0,0c0,0-0.1,0-0.1,0c0,0,0,0,0,0
				c-0.2,0.1-0.5,0.1-0.7,0.2c0,0,0,0,0,0c0,0,0,0,0,0l-16.5-35.1l-7.4,4.3l22.1,31.9c-0.1,0.1-0.2,0.1-0.3,0.2c0,0,0,0,0,0
				c0,0-0.1,0.1-0.1,0.1c0,0,0,0,0,0c0,0-0.1,0.1-0.1,0.1c-0.1,0.1-0.3,0.3-0.4,0.4l-31.8-22.1l-4.3,7.4l35.1,16.6c0,0,0,0,0,0
				c0,0,0,0.1,0,0.1c0,0,0,0,0,0c0,0,0,0.1,0,0.1c0,0,0,0,0,0.1c0,0,0,0.1,0,0.1c0,0,0,0,0,0c0,0,0,0.1,0,0.1c0,0,0,0,0,0.1
				c0,0,0,0,0,0.1c0,0,0,0,0,0c0,0.1-0.1,0.3-0.1,0.4l-38.7-3.2l0,8.6l38.6-3.2c0.1,0.4,0.2,0.8,0.3,1.2l-35.1,16.5l4.3,7.4
				l31.9-22.1c0.3,0.3,0.5,0.6,0.9,0.8l-22.1,31.8l7.4,4.3l16.6-35.1c0.4,0.1,0.8,0.2,1.1,0.3l-3.2,38.7l8.6,0l-3.2-38.6
				c0,0,0.1,0,0.1,0c0,0,0.1,0,0.1,0c0,0,0.1,0,0.1,0c0.3-0.1,0.6-0.1,0.9-0.2l16.6,35.1l7.4-4.3l-22.1-31.8
				c0.3-0.3,0.6-0.5,0.8-0.8l31.9,22.1l4.3-7.4l-35.1-16.5c0.1-0.4,0.2-0.8,0.3-1.2l38.6,3.2l0-8.6l-38.7,3.2
				c-0.1-0.4-0.2-0.8-0.3-1.1l35.1-16.6l-4.3-7.4l-31.8,22.1c0,0-0.1-0.1-0.1-0.1c-0.1-0.1-0.2-0.2-0.3-0.3c0,0,0,0,0,0
				c0,0-0.1-0.1-0.1-0.1c0,0,0,0,0,0c0,0-0.1-0.1-0.1-0.1c0,0,0,0,0,0c0,0-0.1-0.1-0.1-0.1c0,0,0,0,0,0c0,0-0.1-0.1-0.1-0.1
				l22.1-31.9l-7.4-4.3l-16.5,35.1c-0.4-0.1-0.8-0.2-1.2-0.3l3.2-38.6L148.1,1021.6L148.1,1021.6z"/>
		</g>
		<desc>Created with Snap</desc>
	</g>
	<g>
		<g transform="matrix(1.024,0,0,-1.024,0,0)">
			<path class="st1" d="M2047.5-1091.7c-1.3,21.3-2.7,50.3-4,87c-1.3,36.7-2,74.3-2,113c0,22,0,44.7,0,68c0.7,24,1.3,48.3,2,73
				c1.3,49.3,4.3,88,9,116c5.3,28,15.3,49,30,63c15.3,14,36.7,22.7,64,26c27.3,3.3,63.7,5,109,5c0.7,0,7.7,0,21,0
				c14,0,30.7-0.3,50-1c19.3,0,39.3-0.3,60-1c21.3-0.7,39-1.3,53-2c14.7-1.3,26.3-3.3,35-6c9.3-2,16.3-5,21-9c4.7-3.3,7.7-7.7,9-13
				c1.3-4.7,2-10,2-16c0-15.3-4.3-26.7-13-34c-8.7-6.7-26.3-11-53-13c-13.3-1.3-33-2.3-59-3c-25.3,0-51.3,0-78,0
				c-26.7,0-50.7-0.3-72-1c-21.3,0-34.7,0-40,0c-17.3-0.7-29.7-4.7-37-12c-6.7-6.7-10-23-10-49c0-6,0.3-20.7,1-44
				c1.3-22.7,2-54.7,2-96h83c35.3,0,64-0.7,86-2c22.7-0.7,40-2.7,52-6c12.7-3.3,21.3-8.7,26-16c4.7-7.3,7-17,7-29c0-6-0.7-11.7-2-17
				c-0.7-4.7-3.3-9-8-13c-4.7-3.3-11.3-6.3-20-9c-8.7-2-21-3.7-37-5c-19.3-1.3-37.7-2.3-55-3c-16.7,0-33.3,0-50,0h-84
				c0-10,0-22,0-36s0-28.3,0-43c0-14.7,0-29,0-43c0.7-14,1.3-25.3,2-34c0.7-10.7,2-19.7,4-27c2.7-7.3,7-13.3,13-18
				c6.7-4.7,16-8,28-10c12.7-2,29.3-3,50-3h215c23.3,0,38-4.3,44-13c6-8.7,9-20.3,9-35c0-12-2.7-21.3-8-28c-5.3-6-18.3-10.7-39-14
				c-20-2.7-50.3-4.3-91-5c-40-0.7-95.3-1-166-1c-30,0-54.7,2.7-74,8c-19.3,5.3-35,14.3-47,27c-12,12.7-21,29-27,49
				C2053.1-1146.1,2049.5-1121.1,2047.5-1091.7z M2832.5-736.7c38,0,72-6,102-18c30-11.3,55.3-27.7,76-49c21.3-21.3,37.7-47.3,49-78
				c11.3-30.7,17-65,17-103c0-42-6.7-79.7-20-113c-12.7-33.3-30.7-61.7-54-85c-22.7-23.3-50-41.3-82-54c-31.3-12.7-65.7-19-103-19
				c-40.7,0-76.7,7-108,21c-30.7,14-56.7,33-78,57c-20.7,24-36.3,51.7-47,83c-10.7,31.3-16,64.3-16,99c0,38,6,72.7,18,104
				c12.7,32,30.3,59.3,53,82c23.3,23.3,51.3,41.3,84,54C2756.1-743.1,2792.5-736.7,2832.5-736.7z M2821.5-1163.7
				c27.3,0,50.7,4.7,70,14c19.3,10,35,23,47,39c12.7,16,21.7,34,27,54c6,20.7,9,42,9,64c0,22.7-3,43.7-9,63c-5.3,20-14,37.3-26,52
				c-11.3,14.7-26.3,26-45,34c-18,8.7-39.7,13-65,13c-26,0-48.7-4.3-68-13c-19.3-8.7-35.7-20.7-49-36c-12.7-14.7-22.3-32.3-29-53
				c-6.7-20.7-10-43-10-67c0-48.7,12.3-88.3,37-119C2735.8-1148.7,2772.8-1163.7,2821.5-1163.7z M3170.5-1182.7
				c-2.7,23.3-4.3,51.7-5,85c-0.7,33.3-1,73.7-1,121c0,46.7,0,84.3,0,113c0.7,28.7,2.7,54,6,76c3.3,27.3,8.3,45,15,53
				c7.3,8,16.7,12,28,12c8,0,15-0.7,21-2c6.7-1.3,12.3-4.3,17-9c5.3-4,9.3-10,12-18c2.7-8,4-19,4-33c0-2.7,0.3-5.3,1-8
				c0-2.7,0-5.7,0-9c0.7-2.7,1-6,1-10c18,22.7,38.3,42,61,58c23.3,16,49.7,24,79,24c39.3,0,59-16.3,59-49c0-12-2.7-22-8-30
				c-4.7-8-11.7-14.7-21-20c-8.7-4.7-19-8.3-31-11c-11.3-2.7-24-5.3-38-8c-21.3-4-41.3-11.7-60-23c-18.7-10.7-31.3-24.3-38-41
				c0-12.7,0-22,0-28c0.7-6,1-11,1-15c0.7-4,1-8.3,1-13c0-4.7,0-12,0-22c0-34-0.7-66-2-96c-1.3-29.3-2.7-61.3-4-96
				c-0.7-16-2.7-28.3-6-37c-2.7-8.7-6.3-15.3-11-20c-4-4.7-8.7-7.7-14-9c-5.3-0.7-10.7-1-16-1c-18.7,0-31.3,4-38,12
				C3177.5-1228.1,3173.1-1210.1,3170.5-1182.7z M3566.5-1181.7v344c-7.3-0.7-14.7-1.3-22-2c-6.7,0-13.3,0-20,0
				c-22,0-38.7,3.3-50,10c-10.7,7.3-16,21-16,41c0,15.3,4,27.3,12,36c8.7,9.3,25.3,14,50,14c15.3,0,31-1,47-3v58c0,26.7,3,52,9,76
				s15.3,45,28,63c12.7,18.7,29,33.3,49,44c20.7,11.3,45.7,17,75,17c26.7,0,45.3-4,56-12c10.7-7.3,16-19.7,16-37s-7-28-21-32
				s-30-6-48-6c-22,0-38.7-9.7-50-29c-10.7-19.3-16-43-16-71v-70c8.7,2,17,3,25,3c8.7,0.7,17.7,1,27,1c24.7,0,42-4,52-12
				c10.7-8,16-20.7,16-38c0-22-7-36.3-21-43c-14-6-32.7-9-56-9c-6,0-13,0-21,0c-7.3,0-14.7,0.7-22,2v-344c0-16-1.3-28.3-4-37
				c-2.7-8.7-6.3-15.3-11-20c-4.7-4.7-10-7.7-16-9c-6-0.7-12.3-1-19-1c-6,0-12,0.7-18,2c-6,2-11.3,5.3-16,10c-4,5.3-7.7,12.3-11,21
				C3567.8-1206.1,3566.5-1195.1,3566.5-1181.7z M4068.5-736.7c38,0,72-6,102-18c30-11.3,55.3-27.7,76-49c21.3-21.3,37.7-47.3,49-78
				c11.3-30.7,17-65,17-103c0-42-6.7-79.7-20-113c-12.7-33.3-30.7-61.7-54-85c-22.7-23.3-50-41.3-82-54c-31.3-12.7-65.7-19-103-19
				c-40.7,0-76.7,7-108,21c-30.7,14-56.7,33-78,57c-20.7,24-36.3,51.7-47,83c-10.7,31.3-16,64.3-16,99c0,38,6,72.7,18,104
				c12.7,32,30.3,59.3,53,82c23.3,23.3,51.3,41.3,84,54C3992.1-743.1,4028.5-736.7,4068.5-736.7z M4057.5-1163.7
				c27.3,0,50.7,4.7,70,14c19.3,10,35,23,47,39c12.7,16,21.7,34,27,54c6,20.7,9,42,9,64c0,22.7-3,43.7-9,63c-5.3,20-14,37.3-26,52
				c-11.3,14.7-26.3,26-45,34c-18,8.7-39.7,13-65,13c-26,0-48.7-4.3-68-13c-19.3-8.7-35.7-20.7-49-36c-12.7-14.7-22.3-32.3-29-53
				c-6.7-20.7-10-43-10-67c0-48.7,12.3-88.3,37-119C3971.8-1148.7,4008.8-1163.7,4057.5-1163.7z M4406.5-1182.7
				c-2.7,23.3-4.3,51.7-5,85c-0.7,33.3-1,73.7-1,121c0,46.7,0,84.3,0,113c0.7,28.7,2.7,54,6,76c3.3,27.3,8.3,45,15,53
				c7.3,8,16.7,12,28,12c8,0,15-0.7,21-2c6.7-1.3,12.3-4.3,17-9c5.3-4,9.3-10,12-18c2.7-8,4-19,4-33c0-2.7,0.3-5.3,1-8
				c0-2.7,0-5.7,0-9c0.7-2.7,1-6,1-10c18,22.7,38.3,42,61,58c23.3,16,49.7,24,79,24c39.3,0,59-16.3,59-49c0-12-2.7-22-8-30
				c-4.7-8-11.7-14.7-21-20c-8.7-4.7-19-8.3-31-11c-11.3-2.7-24-5.3-38-8c-21.3-4-41.3-11.7-60-23c-18.7-10.7-31.3-24.3-38-41
				c0-12.7,0-22,0-28c0.7-6,1-11,1-15c0.7-4,1-8.3,1-13c0-4.7,0-12,0-22c0-34-0.7-66-2-96c-1.3-29.3-2.7-61.3-4-96
				c-0.7-16-2.7-28.3-6-37c-2.7-8.7-6.3-15.3-11-20c-4-4.7-8.7-7.7-14-9c-5.3-0.7-10.7-1-16-1c-18.7,0-31.3,4-38,12
				C4413.5-1228.1,4409.1-1210.1,4406.5-1182.7z M5021.5-865.7c4,8.7,9.7,15,17,19c8,4.7,16.7,7,26,7c8,0,15.7-2,23-6
				c8-4,14.3-10.3,19-19c19.3-36,36.7-72.7,52-110c16-36.7,33-74,51-112c16.7,54,31.3,106,44,156c12.7,50.7,25.7,100.3,39,149
				c4.7,17.3,11,28.7,19,34c8,6,18.3,9,31,9c11.3,0,20.7-3.3,28-10c7.3-6,11-14.3,11-25c0-8.7-2.3-24-7-46c-4-21.3-9.7-46.3-17-75
				c-6.7-28-14.3-58-23-90c-8-32-16.3-62.7-25-92c-8-29.3-15.7-56-23-80c-7.3-24-13-42-17-54c-5.3-15.3-11.7-27-19-35
				c-7.3-7.3-18.7-11-34-11c-14,0-25.7,5.3-35,16c-9.3,11.3-18,24.7-26,40c-2.7,5.3-7,14.3-13,27c-6,12.7-13.3,27.7-22,45
				c-8,17.3-17,36.3-27,57c-9.3,20.7-19,41.7-29,63c-10-21.3-20.3-42.3-31-63c-10-20.7-19.3-40-28-58c-8.7-17.3-16.3-32.3-23-45
				c-6-12.7-10.3-21.7-13-27c-8-15.3-16.7-28.7-26-40c-8.7-10.7-20.3-16-35-16c-23.3,0-41,15.3-53,46c-4.7,12-10.7,29.7-18,53
				c-7.3,24-15,50.7-23,80c-8,29.3-16,59.7-24,91c-8,32-15.3,62-22,90c-6,28-11,52.7-15,74c-4,21.3-6,36.7-6,46c0,11.3,3,20.7,9,28
				c6.7,7.3,16,11,28,11c13.3,0,24-3,32-9c8.7-5.3,15.3-16.7,20-34c13.3-48.7,26.3-98.3,39-149c12.7-50,27.3-102,44-156
				c14.7,32,29.3,65.3,44,100C4978.1-952.1,4997.5-911.7,5021.5-865.7z M5488.5-1181.7c-1.3,24.7-2.7,52.7-4,84c-0.7,32-1,67-1,105
				c0,47.3,0.3,87.7,1,121c0.7,34,2.3,61.7,5,83c3.3,22,8.3,38,15,48c6.7,10.7,16,16,28,16c11.3,0,21.3-4,30-12
				c8.7-8,13.7-25.3,15-52c4-70,6-137.7,6-203c0-33.3-0.7-64.7-2-94c-1.3-28.7-2.7-60.3-4-95c-0.7-16-2.3-28.3-5-37
				c-2-8.7-5-15.3-9-20c-4-4.7-8.7-7.7-14-9c-4.7-0.7-10.3-1-17-1c-12,0-22,4-30,12C5494.5-1227.1,5489.8-1209.1,5488.5-1181.7z
				 M5533.5-543.7c15.3,0,29.3-6,42-18c13.3-12,20-26.3,20-43c0-16-6.7-30-20-42c-13.3-11.3-28.3-17-45-17c-14,0-27.3,5.7-40,17
				c-12,12-18,26.7-18,44c0,16,6,29.7,18,41C5503.1-549.7,5517.5-543.7,5533.5-543.7z M5942.5-817.7c-24.7,0-47-4-67-12
				c-19.3-8-41.3-20-66-36c0-14,0-34.7,0-62c0-26.7-0.3-56-1-88c-0.7-31.3-1.3-62.3-2-93c-0.7-30.7-2-56.3-4-77c-1.3-13.3-3-24-5-32
				c-1.3-7.3-3.7-13-7-17c-2.7-4-6.7-6.7-12-8c-4.7-0.7-11-1-19-1s-14.7,0.3-20,1c-4.7,1.3-8.7,3.7-12,7c-3.3,4-6,9.7-8,17
				c-2,7.3-3.7,17.3-5,30c-1.3,12-2.7,28-4,48c-0.7,20-1.3,41.7-2,65c-0.7,24-1.3,48-2,72c0,24.7,0,47.3,0,68c0,34,0.3,61.7,1,83
				c1.3,21.3,3.3,40.3,6,57c4,28,9.3,45.7,16,53c6.7,7.3,15.7,11,27,11c16.7,0,29-4.7,37-14c8.7-9.3,14-24.7,16-46
				c24.7,21.3,51,38.3,79,51c28.7,12.7,58,19,88,19c28.7,0,54.7-6.7,78-20c24-13.3,43.7-35,59-65c9.3-18,16.3-38,21-60
				c4.7-21.3,8-44,10-68c0.7-10.7,1.3-21.3,2-32c0.7-10,1-21,1-33c0.7-11.3,1-24.3,1-39c0-14.7,0-32,0-52c0-21.3-0.3-41.3-1-60
				c-0.7-18.7-2.7-35-6-49c-2.7-13.3-7.7-24-15-32c-7.3-7.3-17.3-11-30-11c-30.7,0-46.7,14.7-48,44c0,2,0,10.3,0,25
				c0,15.3-0.3,33-1,53c0,20-0.3,40.3-1,61c0,20.7-0.3,37.7-1,51c-0.7,10.7-1.7,22-3,34c-0.7,12.7-2,25.3-4,38
				c-1.3,12.7-3.3,24.7-6,36c-2.7,12-6,22.7-10,32c-9.3,22-21,36-35,42S5958.5-817.7,5942.5-817.7z M6495.5-1059.7
				c-23.3,0-48,1.7-74,5c-25.3,4-53,12-83,24c6-40.7,22.7-71.3,50-92c28-20.7,68-31,120-31c18.7,0,35.3,1,50,3
				c15.3,2.7,28.7,5.3,40,8c11.3,3.3,21.3,6,30,8c8.7,2.7,16.7,4,24,4c9.3,0,18.3-3,27-9c8.7-5.3,13-14.7,13-28c0-16.7-7-30.3-21-41
				c-13.3-10.7-30-19.3-50-26c-19.3-6-40-10.3-62-13c-22-2-41.3-3-58-3c-39.3,0-75.7,5.3-109,16c-32.7,10.7-61,26.7-85,48
				c-24,22-42.7,49-56,81s-20,69.3-20,112c0,41.3,6.3,78,19,110c13.3,32,31.3,59,54,81s49.3,38.7,80,50c31.3,11.3,65,17,101,17
				c28,0,55-3.7,81-11c26.7-7.3,50-18.3,70-33c20.7-14.7,37-33.3,49-56c12.7-22,19-48,19-78c0-26.7-5-49.3-15-68
				c-10-18.7-24.3-33.7-43-45c-18-11.3-40-19.7-66-25C6555.1-1057.1,6526.8-1059.7,6495.5-1059.7z M6488.5-827.7
				c-18,0-35.3-2.3-52-7c-16.7-4-32-11-46-21c-13.3-9.3-24.7-22-34-38c-9.3-15.3-15.7-34.7-19-58c25.3-11.3,50-19.3,74-24
				c24-4,49.3-6,76-6c39.3,0,68.3,4.7,87,14c19.3,10,29,27.7,29,53c0,23.3-9,43.7-27,61C6559.1-836.4,6529.8-827.7,6488.5-827.7z"/>
		</g>
	</g>
</g>
</svg>
