<?xml version="1.0" encoding="utf-8"?>
<!-- Generator: Adobe Illustrator 25.4.1, SVG Export Plug-In . SVG Version: 6.00 Build 0)  -->
<svg version="1.1" id="レイヤー_1" xmlns="http://www.w3.org/2000/svg" xmlns:xlink="http://www.w3.org/1999/xlink" x="0px"
	 y="0px" viewBox="0 0 214.4 43.5" style="enable-background:new 0 0 214.4 43.5;" xml:space="preserve">
<style type="text/css">
	.st0{fill:#1D8AC0;}
</style>
<desc>Created with Snap</desc>
<g transform="matrix(0.0576,0,0,0.0576,14.8142,146.0114)">
	<g>
		<g transform="matrix(1.024,0,0,-1.024,0,0)">
			<path class="st0" d="M114.8,2386.5c32,0,64.3-3,97-9s58.7-14.7,78-26c6-2.7,9.7-5.7,11-9c2-2.7,3.3-7.7,4-15l11-112
				c0-2-1.7-3.3-5-4c-3.3,0-5.3,1-6,3c-14.7,51.3-42,89-82,113c-39.3,24.7-88.3,37-147,37c-50.7,0-95-11.3-133-34
				c-38-22-67.3-53.3-88-94s-31-87.7-31-141c0-62,12.7-119.3,38-172c26-52.7,60.7-94.3,104-125c44-30.7,91.3-46,142-46
				c48,0,89.7,13,125,39c35.3,26.7,62.3,67.3,81,122c0,2,1.3,3,4,3c2,0,3.7-0.3,5-1c2-0.7,3-1.7,3-3l-14-113c-1.3-8-3-13.3-5-16
				c-1.3-2-5-4.3-11-7c-60-25.3-123.3-38-190-38c-80,0-147,16-201,48c-53.3,32.7-92.7,74-118,124s-38,102.7-38,158
				c0,61.3,17,116.3,51,165s79,86.3,135,113C-9.2,2373.1,50.8,2386.5,114.8,2386.5z M853.8,1807.5h2c2.7,0,4.3-1.7,5-5
				c1.3-2.7,0.7-4.7-2-6l-117-55l-4-1c-6.7,0-13,7.7-19,23s-9,35.3-9,60v4c-26-29.3-52-51-78-65c-26-13.3-53-20-81-20
				c-33.3,0-59.3,10.3-78,31c-18.7,21.3-28,52-28,92v153c0,26-2.3,44.7-7,56c-4.7,12-12.3,18-23,18c-9.3,0-20.7-3.3-34-10h-1
				c-2.7,0-4.7,1.7-6,5c-1.3,4-0.7,6.3,2,7l111,50l4,1c2,0,4-1,6-3c2.7-1.3,4-3,4-5v-239c0-77.3,28-116,84-116c21.3,0,43,5.3,65,16
				c22,11.3,42,26.7,60,46v174c0,26.7-2.3,45.7-7,57c-4,11.3-11.7,17-23,17c-9.3,0-20.7-3.3-34-10h-1c-2.7,0-4.7,1.7-6,5
				c-0.7,4,0.3,6.3,3,7l111,50l3,1c2,0,4-1,6-3c2.7-1.3,4-3,4-5v-280c0-22.7,2.7-39,8-49s14.3-15,27-15
				C812.1,1793.5,829.8,1798.1,853.8,1807.5z M1365.8,1806.5l2,1c2.7,0,4.3-1.7,5-5c1.3-3.3,1-5.7-1-7l-110-52c-4-1.3-6.7-2-8-2
				c-8.7,0-16,7.3-22,22s-9.3,35-10,61c-24.7-26-50.7-47-78-63c-26.7-16-56.7-24-90-24c-28,0-54,8-78,24c-23.3,16-42.3,38.3-57,67
				c-14,29.3-21,62.7-21,100c0,47.3,11.7,87.7,35,121c23.3,33.3,52.7,58.3,88,75c35.3,16.7,70.3,25,105,25c35.3,0,67.3-8.7,96-26
				v224c0,24-2.7,41.3-8,52c-4.7,10.7-13,16-25,16c-8.7,0-24-4.7-46-14h-2c-2.7,0-4.7,1.3-6,4c-0.7,3.3,0,5.7,2,7l127,62
				c1.3,0.7,3,1,5,1c1.3,0,3-1,5-3c2.7-1.3,4-3,4-5v-607c0-24,2.7-41.3,8-52c6-10.7,15.3-16,28-16
				C1333.1,1792.5,1350.5,1797.1,1365.8,1806.5z M1092.8,1773.5c24,0,46.3,5.7,67,17c20.7,12,41.3,28.7,62,50v220
				c-16,22-33.7,39-53,51s-42.7,18-70,18c-42,0-75.3-15-100-45c-24-29.3-36-71.3-36-126c0-36.7,5.7-69,17-97s26.7-49.7,46-65
				C1045.8,1781.1,1068.1,1773.5,1092.8,1773.5z M1685.8,2149.5c28.7,0,55.3-7,80-21s44.3-35,59-63c14.7-27.3,22-61,22-101
				c0-48-10.7-89.3-32-124c-20.7-34-48-59.7-82-77c-33.3-17.3-68.7-26-106-26c-51.3,0-96.7,14.7-136,44l-76-36h-2
				c-2.7,0-4.3,1.3-5,4s0,4.7,2,6c21.3,14.7,36.3,28.3,45,41c8.7,13.3,13,32.3,13,57v494c0,24-2.7,41.3-8,52c-4.7,10.7-13,16-25,16
				c-9.3,0-24.3-4.3-45-13h-2c-2,0-3.7,1.7-5,5c-0.7,3.3,0,5.3,2,6l125,61l5,1c1.3,0,3-1,5-3c2.7-1.3,4-3,4-5v-405
				c25.3,26.7,50.7,47.7,76,63C1625.1,2141.5,1653.8,2149.5,1685.8,2149.5z M1657.8,1756.5c38.7,0,68.7,15,90,45c22,30,33,73,33,129
				c0,60-11.7,106-35,138c-23.3,32-54.3,48-93,48c-22.7,0-44.3-6.3-65-19c-20.7-12-42-29-64-51v-164c0-29.3,7-53.3,21-72
				c14.7-18.7,32.3-32.3,53-41S1638.5,1756.5,1657.8,1756.5z M2246.8,1806.5h1c2,0,3.7-1.3,5-4c2-2,2.3-4,1-6
				c-45.3-38.7-94-58-146-58c-39.3,0-73.3,9-102,27s-50.3,41.3-65,70c-14,29.3-21,61-21,95c0,40,9.3,76.3,28,109
				c19.3,32.7,45.3,58.3,78,77c32.7,19.3,69,29,109,29c36,0,64-9,84-27c20-17.3,30-41.3,30-72c0-8-1-14-3-18c-1.3-3.3-4.3-5-9-5
				l-246-2c-3.3-18-5-35.3-5-52c0-58,14-105.3,42-142c28-36,66.7-54,116-54C2181.8,1773.5,2216.1,1784.5,2246.8,1806.5z
				 M2100.8,2125.5c-27.3,0-50.3-8-69-24c-18-15.3-30.7-37.3-38-66l186,4c0,27.3-7.3,48.3-22,63
				C2143.8,2117.8,2124.8,2125.5,2100.8,2125.5z M2566.8,2145.5c14.7,0,28.7-4,42-12s20-17.7,20-29c0-8.7-3-16-9-22
				c-5.3-6-13.3-9-24-9c-6,0-11.3,1-16,3c-4,2.7-9,6.3-15,11c-6,5.3-11.7,9.3-17,12s-11.7,4-19,4c-8.7,0-18-3.7-28-11
				c-9.3-6.7-24.3-22-45-46v-215c0-20,2.3-34.7,7-44c5.3-9.3,14.7-16,28-20c13.3-3.3,34-5,62-5c2.7,0,4-2,4-6s-1.3-6-4-6
				c-21.3,0-38.3,0.3-51,1l-74,1l-55-1c-8.7-0.7-20.7-1-36-1c-2,0-3,2-3,6s1,6,3,6c18,0,31.3,1.7,40,5c8.7,4,14.3,10.7,17,20
				c3.3,9.3,5,24,5,44v198c0,22.7-2.7,39-8,49s-14.3,15-27,15c-10.7,0-28.7-5-54-15h-2c-2.7,0-4.7,1.3-6,4c-0.7,3.3,0.3,5.7,3,7
				l116,55c1.3,0.7,3.3,1,6,1c6,0,12.3-7.7,19-23s10-35,10-59v-1c27.3,32,49,53.7,65,65C2536.8,2139.5,2552.1,2145.5,2566.8,2145.5z
				 M2886.8,1738.5c-43.3,0-79.7,9.3-109,28c-29.3,19.3-51,44-65,74s-21,61.7-21,95c0,42.7,10.7,79.7,32,111
				c21.3,32,48.7,56.3,82,73c34,17.3,68.7,26,104,26c29.3,0,56-6,80-18c24.7-11.3,37-25.7,37-43c0-8.7-3.3-16.3-10-23
				c-6-6-14.3-9-25-9c-18,0-32.7,11-44,33c-8.7,13.3-18,23.3-28,30s-24.3,10-43,10c-37.3,0-66.7-14.7-88-44
				c-20.7-28.7-31-67.3-31-116c0-56,14-102,42-138s70-54,126-54c40.7,0,74.7,11,102,33h1c2,0,3.7-1,5-3c2-2,2.3-3.7,1-5
				c-23.3-20.7-47-36-71-46C2940.5,1743.1,2914.8,1738.5,2886.8,1738.5z M3375.8,1801.5l2,1c2.7,0,4.7-1.7,6-5c1.3-2.7,1-4.7-1-6
				c-24.7-19.3-47-33-67-41c-19.3-8-39.7-12-61-12c-28,0-51,6.3-69,19s-27,33.7-27,63v235c0,17.3-1.3,29.7-4,37c-2,7.3-6.3,12-13,14
				c-6.7,2.7-18,4-34,4c-2.7,0-4,2-4,6c0,4.7,1.3,7,4,7c26.7,0.7,48.3,7.7,65,21c16.7,14,26.3,32.3,29,55c0,2,2.7,3,8,3
				c4.7,0,7-1,7-3v-74c33.3,0.7,79.7,4,139,10c1.3,0,2.7-2.7,4-8c2-4.7,3-10,3-16c0-5.3-1.3-11-4-17c-2-5.3-4.3-7.7-7-7
				c-36.7,9.3-81.7,14.7-135,16v-249c0-27.3,6.7-47.7,20-61c14-13.3,33.7-20,59-20C3326.5,1773.5,3353.1,1782.8,3375.8,1801.5z"/>
		</g>
	</g>
</g>
</svg>
