<?xml version="1.0" encoding="utf-8"?>
<!-- Generator: Adobe Illustrator 22.1.0, SVG Export Plug-In . SVG Version: 6.00 Build 0)  -->
<svg version="1.1" id="レイヤー_1" xmlns="http://www.w3.org/2000/svg" xmlns:xlink="http://www.w3.org/1999/xlink" x="0px"
	 y="0px" viewBox="0 0 64 64" style="enable-background:new 0 0 64 64;" xml:space="preserve">
<style type="text/css">
	.st0{fill:#202020;stroke:#202020;stroke-width:2;stroke-linecap:round;stroke-miterlimit:10;}
</style>
<title>Facebook</title>
<desc>A line styled icon from Orion Icon Library.</desc>
<path class="st0" d="M56.4,2H7.6C4.5,2,2,4.5,2,7.6v48.8C2,59.5,4.5,62,7.6,62h26.2V37.6h-6.6v-9.4h6.6v-4.7
	c0.2-5.3,1.5-9.9,10.4-10.3h7.4v9.3h-6.2c-1.6-0.1-3,1.1-3.1,2.8c0,0,0,0.1,0,0.1v2.8h9.4l-1.6,9.4h-7.8V62h14.1
	c3.1,0,5.6-2.5,5.6-5.6V7.6C62,4.5,59.5,2,56.4,2z"/>
</svg>
