<?xml version="1.0" encoding="utf-8"?>
<!-- Generator: Adobe Illustrator 22.1.0, SVG Export Plug-In . SVG Version: 6.00 Build 0)  -->
<svg version="1.1" id="レイヤー_1" xmlns="http://www.w3.org/2000/svg" xmlns:xlink="http://www.w3.org/1999/xlink" x="0px"
	 y="0px" viewBox="0 0 64 64" style="enable-background:new 0 0 64 64;" xml:space="preserve">
<style type="text/css">
	.st0{fill:#202020;stroke:#202020;stroke-width:2;stroke-linecap:round;stroke-miterlimit:10;}
</style>
<title>Twitter</title>
<desc>A line styled icon from Orion Icon Library.</desc>
<path class="st0" d="M60.4,15.1c-1.1,0.4-2.2,0.7-3.3,1c-0.3,0.1-0.5-0.1-0.6-0.4c0-0.2,0-0.4,0.1-0.5C58,14,59,12.6,59.8,11
	c0.1-0.2,0-0.5-0.2-0.7c-0.1-0.1-0.3-0.1-0.4,0c-2,1.1-4.2,1.8-6.5,2.1c-2.4-2.4-5.6-3.7-9-3.8c-6.8,0-12.4,5.5-12.4,12.4
	c0,0,0,0,0,0c0,0.9,0.1,1.8,0.3,2.7c-9-0.3-19.6-4.6-25.8-12.2c-0.2-0.2-0.5-0.3-0.7-0.1c-0.1,0-0.1,0.1-0.1,0.2
	c-2.4,5-1.2,11.1,3,14.8c0.2,0.2,0.2,0.5,0.1,0.7c-0.1,0.1-0.3,0.2-0.4,0.2c-1.1,0-2.1-0.3-3.1-0.8c-0.2-0.1-0.5,0-0.7,0.2
	c0,0.1-0.1,0.2-0.1,0.3c0.2,4.8,3.4,9,8,10.6c0.3,0.1,0.4,0.4,0.3,0.6c-0.1,0.2-0.2,0.3-0.4,0.3c-0.9,0.1-1.9,0.1-2.8,0
	c-0.3,0-0.5,0.2-0.6,0.5c0,0.1,0,0.1,0,0.2c0.8,3.3,5.1,7.1,9.8,7.7c0.3,0,0.5,0.3,0.4,0.6c0,0.1-0.1,0.2-0.2,0.3
	c-4,3.2-8.9,4.8-14,4.6c-0.3,0-0.5,0.2-0.5,0.5c0,0.2,0.1,0.4,0.3,0.5c5.3,2.8,11.3,4.3,17.3,4.3C40.5,57.5,56,42.1,56.1,23.1
	c0-0.6,0-1.3,0-1.9v-0.5c1.9-1.3,3.6-3,4.9-4.8c0.2-0.2,0.1-0.5-0.1-0.7C60.8,15.1,60.6,15,60.4,15.1z"/>
</svg>
