<?xml version="1.0" encoding="utf-8"?>
<!-- Generator: Adobe Illustrator 22.1.0, SVG Export Plug-In . SVG Version: 6.00 Build 0)  -->
<svg version="1.1" id="レイヤー_1" xmlns="http://www.w3.org/2000/svg" xmlns:xlink="http://www.w3.org/1999/xlink" x="0px"
	 y="0px" viewBox="0 0 64 64" style="enable-background:new 0 0 64 64;" xml:space="preserve">
<style type="text/css">
	.st0{fill:#202020;stroke:#202020;stroke-width:2;stroke-linecap:round;stroke-miterlimit:10;}
</style>
<title>Instagram</title>
<desc>A line styled icon from Orion Icon Library.</desc>
<path class="st0" d="M44.1,2H19.9C10,2,2,10,2,19.8V44c0,9.9,8,17.8,17.9,17.8h24.3C54,61.9,62,53.9,62,44V19.8C62,10,54,2,44.1,2z
	 M56,44c0,6.5-5.3,11.8-11.8,11.8c0,0,0,0,0,0H19.9C13.3,55.9,8,50.6,8,44c0,0,0,0,0,0V19.8C8,13.3,13.3,8,19.9,8c0,0,0,0,0,0h24.3
	C50.7,8,56,13.3,56,19.8c0,0,0,0,0,0V44z"/>
<path class="st0" d="M32,16.5c-8.6,0-15.5,7-15.5,15.5c0,8.6,7,15.5,15.5,15.5c8.5,0,15.5-6.9,15.5-15.5
	C47.5,23.4,40.6,16.5,32,16.5z M32,41.4c-5.2,0-9.5-4.3-9.4-9.5s4.3-9.5,9.5-9.4c5.2,0,9.4,4.2,9.4,9.5C41.5,37.2,37.2,41.4,32,41.4
	z M51.3,16.6c0,2.1-1.7,3.7-3.7,3.7c-2.1,0-3.7-1.7-3.7-3.7c0-2.1,1.7-3.7,3.7-3.7c0,0,0,0,0,0C49.6,12.9,51.3,14.5,51.3,16.6
	C51.3,16.6,51.3,16.6,51.3,16.6z"/>
</svg>
